<svg width="21" height="17" viewBox="0 0 21 17" fill="none" xmlns="http://www.w3.org/2000/svg">
<path id="Combined Shape" fill-rule="evenodd" clip-rule="evenodd" d="M0.336426 3.52718C0.336426 2.04139 1.5409 0.836914 3.02669 0.836914H17.3748C18.8606 0.836914 20.065 2.04139 20.065 3.52718V14.2882C20.065 15.7741 18.8606 16.9785 17.3748 16.9785H3.02669C1.5409 16.9785 0.336426 15.7741 0.336426 14.2882V3.52718ZM3.02669 2.63042H17.3748C17.8701 2.63042 18.2715 3.03192 18.2715 3.52718V14.2882C18.2715 14.7835 17.8701 15.185 17.3748 15.185H3.02669C2.53143 15.185 2.12994 14.7835 2.12994 14.2882V3.52718C2.12994 3.03192 2.53143 2.63042 3.02669 2.63042ZM4.8202 4.42393C4.32494 4.42393 3.92345 4.82543 3.92345 5.32069C3.92345 5.81595 4.32494 6.21744 4.8202 6.21744C5.31546 6.21744 5.71696 5.81595 5.71696 5.32069C5.71696 4.82543 5.31546 4.42393 4.8202 4.42393ZM14.6845 5.32069C14.6845 4.82543 15.086 4.42393 15.5813 4.42393C16.0765 4.42393 16.478 4.82543 16.478 5.32069C16.478 5.81595 16.0765 6.21744 15.5813 6.21744C15.086 6.21744 14.6845 5.81595 14.6845 5.32069ZM3.92345 8.90771C3.92345 8.41243 4.32494 8.01096 4.8202 8.01096C5.31546 8.01096 5.71696 8.41243 5.71696 8.90771C5.71696 9.40299 5.31546 9.80447 4.8202 9.80447C4.32494 9.80447 3.92345 9.40299 3.92345 8.90771ZM14.6845 8.90771C14.6845 8.41243 15.086 8.01096 15.5813 8.01096C16.0765 8.01096 16.478 8.41243 16.478 8.90771C16.478 9.40299 16.0765 9.80447 15.5813 9.80447C15.086 9.80447 14.6845 9.40299 14.6845 8.90771ZM3.92345 12.4947C3.92345 11.9995 4.32494 11.598 4.8202 11.598C5.31546 11.598 5.71696 11.9995 5.71696 12.4947C5.71696 12.99 5.31546 13.3915 4.8202 13.3915C4.32494 13.3915 3.92345 12.99 3.92345 12.4947ZM14.6845 12.4947C14.6845 11.9995 15.086 11.598 15.5813 11.598C16.0765 11.598 16.478 11.9995 16.478 12.4947C16.478 12.99 16.0765 13.3915 15.5813 13.3915C15.086 13.3915 14.6845 12.99 14.6845 12.4947Z" fill="#767278"/>
</svg>
